<?xml version="1.0" standalone="no"?>
<!DOCTYPE svg PUBLIC "-//W3C//DTD SVG 20010904//EN"
 "http://www.w3.org/TR/2001/REC-SVG-20010904/DTD/svg10.dtd">
<svg version="1.0" xmlns="http://www.w3.org/2000/svg"
 width="512.000000pt" height="512.000000pt" viewBox="0 0 512.000000 512.000000"
 preserveAspectRatio="xMidYMid meet">
<metadata>
Created by potrace 1.11, written by Peter Selinger 2001-2013
</metadata>
<g transform="translate(0.000000,512.000000) scale(0.100000,-0.100000)"
fill="#000000" stroke="none">
<path d="M3658 5084 c-5 -4 -53 -14 -148 -28 -41 -7 -75 -14 -75 -16 0 -1 -18
-3 -40 -5 -35 -4 -97 -15 -161 -29 -12 -2 -39 -7 -60 -10 -22 -4 -61 -11 -89
-16 -27 -5 -63 -11 -80 -14 -16 -2 -30 -5 -30 -6 0 -1 -13 -4 -30 -5 -16 -2
-40 -6 -52 -9 -43 -9 -118 -20 -130 -18 -7 2 -13 -1 -13 -6 0 -4 -12 -8 -27
-9 -16 0 -52 -5 -81 -11 -30 -7 -58 -10 -63 -6 -5 3 -9 1 -9 -5 0 -5 -8 -8
-17 -6 -10 1 -22 0 -28 -3 -5 -3 -23 -7 -40 -9 -46 -6 -80 -11 -80 -13 0 -2
-46 -8 -90 -13 -11 -2 -24 -5 -30 -8 -5 -4 -20 -5 -32 -4 -13 1 -23 -1 -23 -4
0 -3 -14 -12 -31 -20 -60 -26 -89 -154 -43 -192 7 -6 12 -15 9 -19 -3 -5 13
-16 35 -26 44 -20 45 -24 4 -29 -16 -2 -42 -9 -59 -16 -16 -7 -36 -11 -42 -10
-7 1 -13 -2 -13 -6 0 -5 -13 -14 -28 -20 -32 -14 -180 -157 -164 -158 2 0 -1
-12 -7 -27 -7 -18 -28 -36 -63 -54 -29 -15 -55 -29 -58 -33 -3 -3 -17 -13 -32
-21 -36 -21 -167 -124 -162 -129 2 -2 -7 -12 -21 -22 -13 -11 -41 -43 -62 -72
-20 -28 -43 -58 -50 -65 -7 -8 -11 -17 -8 -22 3 -5 1 -10 -4 -12 -12 -4 -83
-148 -74 -148 5 0 3 -4 -3 -8 -5 -4 -20 -41 -33 -83 -39 -136 -48 -203 -46
-346 3 -121 16 -202 60 -358 14 -49 27 -97 29 -105 2 -8 9 -35 16 -60 7 -25
14 -54 15 -65 1 -11 5 -27 8 -35 4 -8 9 -34 12 -57 3 -24 8 -62 11 -85 3 -24
7 -66 8 -93 1 -28 5 -56 9 -62 4 -6 3 -14 -3 -18 -6 -4 -7 -12 -3 -18 11 -18
11 -47 -1 -47 -7 0 -6 -4 1 -11 6 -6 8 -23 3 -45 -5 -20 -4 -34 2 -34 5 0 6
-6 2 -12 -8 -13 -10 -27 -15 -145 -2 -35 -6 -63 -10 -63 -3 0 -5 -21 -4 -46 0
-25 -3 -48 -7 -50 -5 -3 -6 -10 -3 -15 4 -5 -1 -19 -9 -31 -9 -12 -16 -18 -16
-13 0 5 -24 -16 -53 -46 -38 -39 -72 -91 -115 -178 -34 -67 -62 -128 -62 -136
0 -8 -3 -15 -7 -15 -5 0 -16 -20 -26 -45 -11 -25 -23 -45 -28 -45 -4 0 -6 -6
-3 -14 3 -7 -2 -21 -11 -30 -9 -9 -14 -16 -11 -16 3 0 -15 -40 -39 -90 -25
-49 -45 -94 -45 -100 0 -5 -4 -10 -10 -10 -5 0 -9 -3 -8 -7 2 -10 -36 -93
-203 -438 -24 -49 -42 -93 -41 -97 1 -3 -5 -12 -13 -18 -8 -7 -15 -19 -15 -26
0 -17 -21 -56 -35 -66 -5 -4 -7 -8 -3 -8 3 0 -8 -28 -24 -62 -31 -63 -42 -102
-26 -92 4 3 8 -4 8 -15 0 -21 48 -61 74 -61 9 0 16 -4 16 -8 0 -4 12 -9 28
-10 15 -1 38 -6 52 -11 14 -5 45 -14 70 -21 25 -7 52 -15 60 -18 8 -3 21 -4
27 -3 7 1 13 -3 13 -10 0 -6 7 -8 16 -5 9 3 21 3 27 -1 7 -4 15 -8 20 -9 4 -1
8 -2 10 -4 1 -1 9 -3 17 -5 8 -2 83 -23 165 -46 250 -70 276 -60 290 110 2 22
6 44 10 50 3 6 0 11 -7 11 -8 0 -9 3 -3 8 6 4 11 21 11 37 3 61 14 147 19 156
4 5 1 9 -6 9 -8 0 -8 4 -1 13 6 7 11 22 11 32 0 21 4 70 16 174 8 77 14 130
20 196 10 92 12 119 20 195 5 41 9 83 9 93 0 9 4 17 8 17 5 0 4 8 -1 19 -6 10
-7 21 -4 25 6 6 8 18 18 121 3 33 8 83 11 110 12 92 10 229 -4 275 -12 42 -11
89 3 180 3 19 7 51 8 70 2 19 6 40 10 47 4 6 3 14 -3 18 -7 4 -7 12 0 26 11
19 15 409 5 459 -2 14 -7 43 -10 65 -2 22 -7 54 -11 70 -3 17 -7 44 -10 60 -5
37 -12 69 -14 73 -2 1 -3 5 -4 10 -18 79 -29 121 -37 137 -5 11 -11 29 -12 40
-5 28 -18 77 -24 95 -7 17 -6 15 -23 95 -13 62 -21 255 -11 255 3 0 7 12 7 28
1 15 5 43 9 62 4 19 9 44 10 56 1 11 5 25 9 32 4 7 9 22 11 34 3 12 10 25 17
30 7 4 9 8 4 8 -5 0 -3 6 3 13 6 8 8 17 4 20 -3 4 -1 7 6 7 7 0 9 5 6 10 -3 6
-1 10 4 10 6 0 11 5 11 11 0 39 152 218 230 272 26 18 55 23 46 9 -11 -18 56
-133 107 -185 28 -29 75 -64 103 -78 43 -20 49 -26 38 -37 -7 -7 -16 -12 -19
-12 -9 1 -53 -33 -95 -72 -22 -21 -45 -38 -50 -38 -6 0 -10 -6 -10 -13 0 -7
-8 -20 -17 -28 -29 -26 -63 -68 -63 -79 0 -6 -4 -10 -9 -10 -5 0 -11 -8 -15
-17 -3 -10 -14 -31 -24 -48 -32 -52 -73 -164 -88 -243 -13 -67 -16 -271 -16
-1494 0 -1603 -6 -1477 80 -1566 91 -93 41 -87 759 -90 577 -2 636 -1 675 15
24 9 48 21 53 25 6 5 22 17 36 27 28 21 79 91 83 113 1 7 5 19 10 26 9 16 11
2851 1 2902 -23 123 -56 217 -110 309 -38 64 -48 77 -97 131 -16 16 -28 34
-28 40 0 5 -4 10 -10 10 -5 0 -19 10 -32 23 -13 12 -39 33 -58 47 -19 13 -37
27 -40 31 -3 3 -45 26 -95 50 l-90 44 0 268 c0 147 3 267 7 267 7 0 166 -57
238 -85 19 -8 76 -28 125 -45 50 -17 99 -35 110 -40 11 -5 43 -16 70 -26 28
-9 54 -21 59 -25 5 -4 15 -5 22 -2 8 3 14 -1 14 -8 0 -7 3 -10 6 -6 4 3 19 0
34 -8 15 -8 30 -11 34 -8 3 4 6 2 6 -4 0 -9 14 -9 98 -1 6 1 12 5 12 10 0 5 5
6 10 3 6 -3 10 -3 10 2 0 4 11 21 25 37 14 16 25 41 26 55 2 45 -3 76 -13 82
-5 3 -9 9 -9 13 3 31 -68 71 -214 122 -44 15 -91 32 -105 37 -14 6 -32 11 -40
13 -8 2 -23 7 -35 12 -49 23 -81 35 -95 37 -8 2 -46 15 -85 30 -38 15 -74 28
-80 30 -5 1 -19 6 -30 10 -52 21 -121 47 -130 50 -5 1 -18 5 -27 8 -10 4 -25
9 -34 12 -9 3 -15 8 -12 10 5 5 77 20 148 30 25 3 61 10 80 15 19 5 53 11 75
15 102 15 169 26 174 29 3 2 30 7 60 11 30 4 63 9 75 11 54 12 115 23 156 29
25 4 50 8 55 9 6 2 27 6 48 11 38 7 102 69 91 87 -3 4 -1 8 4 8 5 0 10 12 10
28 2 74 -45 134 -115 150 -23 5 -43 8 -45 6z"/>
</g>
</svg>
